<mxfile host="Electron" modified="2023-04-18T13:05:01.455Z" agent="Mozilla/5.0 (Windows NT 10.0; Win64; x64) AppleWebKit/537.36 (KHTML, like Gecko) draw.io/21.1.2 Chrome/106.0.5249.199 Electron/21.4.3 Safari/537.36" etag="NF6PjXFkmzadwCq_9Lno" version="21.1.2" type="device">
  <diagram id="y5UhOXJ24lHy6HSWHHRA" name="Σελίδα-1">
    <mxGraphModel dx="2709" dy="1529" grid="0" gridSize="10" guides="1" tooltips="1" connect="1" arrows="1" fold="1" page="0" pageScale="1" pageWidth="827" pageHeight="1169" math="0" shadow="0">
      <root>
        <mxCell id="0" />
        <mxCell id="1" parent="0" />
        <mxCell id="HchMumat6N0xvnnnB4oJ-53" value="" style="edgeStyle=none;curved=1;rounded=0;orthogonalLoop=1;jettySize=auto;html=1;fontSize=13;startSize=8;endSize=8;" parent="1" source="HchMumat6N0xvnnnB4oJ-2" target="HchMumat6N0xvnnnB4oJ-39" edge="1">
          <mxGeometry x="0.5272" y="64" relative="1" as="geometry">
            <mxPoint x="371" y="111" as="targetPoint" />
            <mxPoint as="offset" />
          </mxGeometry>
        </mxCell>
        <mxCell id="nytSstBC6C1jP0jetPo6-3" value="&lt;font style=&quot;font-size: 13px;&quot;&gt;Προσθήκη φαγητού στη λίστα φαγητών&lt;/font&gt;" style="edgeLabel;html=1;align=center;verticalAlign=middle;resizable=0;points=[];rotation=20;" parent="HchMumat6N0xvnnnB4oJ-53" vertex="1" connectable="0">
          <mxGeometry x="0.3355" y="-2" relative="1" as="geometry">
            <mxPoint x="-50" y="-30" as="offset" />
          </mxGeometry>
        </mxCell>
        <mxCell id="HchMumat6N0xvnnnB4oJ-55" value="" style="edgeStyle=none;curved=1;rounded=0;orthogonalLoop=1;jettySize=auto;html=1;fontSize=12;startSize=8;endSize=8;" parent="1" source="HchMumat6N0xvnnnB4oJ-2" target="HchMumat6N0xvnnnB4oJ-6" edge="1">
          <mxGeometry relative="1" as="geometry" />
        </mxCell>
        <mxCell id="nytSstBC6C1jP0jetPo6-1" value="&lt;font style=&quot;font-size: 13px;&quot;&gt;Αναζήτηση φαγητού&lt;/font&gt;" style="edgeLabel;html=1;align=center;verticalAlign=middle;resizable=0;points=[];rotation=40;" parent="HchMumat6N0xvnnnB4oJ-55" vertex="1" connectable="0">
          <mxGeometry x="0.3814" relative="1" as="geometry">
            <mxPoint x="-7" y="-18" as="offset" />
          </mxGeometry>
        </mxCell>
        <mxCell id="HchMumat6N0xvnnnB4oJ-56" value="" style="edgeStyle=none;curved=1;rounded=0;orthogonalLoop=1;jettySize=auto;html=1;fontSize=12;startSize=8;endSize=8;" parent="1" source="HchMumat6N0xvnnnB4oJ-2" target="HchMumat6N0xvnnnB4oJ-18" edge="1">
          <mxGeometry relative="1" as="geometry" />
        </mxCell>
        <mxCell id="HchMumat6N0xvnnnB4oJ-57" value="Προσθήκη φαγητού στην ημερήσια λίστα" style="edgeLabel;html=1;align=center;verticalAlign=middle;resizable=0;points=[];fontSize=16;rotation=-45;" parent="HchMumat6N0xvnnnB4oJ-56" vertex="1" connectable="0">
          <mxGeometry x="-0.2525" y="2" relative="1" as="geometry">
            <mxPoint x="-50" y="14" as="offset" />
          </mxGeometry>
        </mxCell>
        <mxCell id="HchMumat6N0xvnnnB4oJ-2" value="Χρήστης" style="shape=umlActor;verticalLabelPosition=bottom;verticalAlign=top;html=1;fontSize=16;" parent="1" vertex="1">
          <mxGeometry x="106" y="-170" width="30" height="60" as="geometry" />
        </mxCell>
        <mxCell id="HchMumat6N0xvnnnB4oJ-11" value="" style="edgeStyle=none;curved=1;rounded=0;orthogonalLoop=1;jettySize=auto;html=1;fontSize=12;startSize=8;endSize=8;" parent="1" source="HchMumat6N0xvnnnB4oJ-6" target="HchMumat6N0xvnnnB4oJ-10" edge="1">
          <mxGeometry relative="1" as="geometry" />
        </mxCell>
        <mxCell id="HchMumat6N0xvnnnB4oJ-6" value="Σελίδα αναζήτησης φαγητού" style="shape=umlBoundary;whiteSpace=wrap;html=1;fontSize=16;" parent="1" vertex="1">
          <mxGeometry x="291" y="8.5" width="115" height="90" as="geometry" />
        </mxCell>
        <mxCell id="HchMumat6N0xvnnnB4oJ-13" value="ναι" style="edgeStyle=none;curved=1;rounded=0;orthogonalLoop=1;jettySize=auto;html=1;fontSize=12;startSize=8;endSize=8;" parent="1" source="HchMumat6N0xvnnnB4oJ-10" target="HchMumat6N0xvnnnB4oJ-12" edge="1">
          <mxGeometry y="12" relative="1" as="geometry">
            <mxPoint as="offset" />
          </mxGeometry>
        </mxCell>
        <mxCell id="HchMumat6N0xvnnnB4oJ-21" value="" style="edgeStyle=none;curved=1;rounded=0;orthogonalLoop=1;jettySize=auto;html=1;fontSize=12;startSize=8;endSize=8;" parent="1" source="HchMumat6N0xvnnnB4oJ-10" target="HchMumat6N0xvnnnB4oJ-20" edge="1">
          <mxGeometry relative="1" as="geometry" />
        </mxCell>
        <mxCell id="HchMumat6N0xvnnnB4oJ-36" value="&lt;font style=&quot;font-size: 13px;&quot;&gt;οχι&lt;/font&gt;" style="edgeStyle=none;curved=1;rounded=0;orthogonalLoop=1;jettySize=auto;html=1;fontSize=12;startSize=8;endSize=8;entryX=-0.05;entryY=0.6;entryDx=0;entryDy=0;entryPerimeter=0;" parent="1" source="HchMumat6N0xvnnnB4oJ-10" target="HchMumat6N0xvnnnB4oJ-37" edge="1">
          <mxGeometry x="-0.2273" y="11" relative="1" as="geometry">
            <mxPoint x="297.48967377625013" y="240.54557458129193" as="targetPoint" />
            <mxPoint as="offset" />
          </mxGeometry>
        </mxCell>
        <mxCell id="HchMumat6N0xvnnnB4oJ-10" value="Υπάρχει το φαγητό;" style="ellipse;shape=umlControl;whiteSpace=wrap;html=1;fontSize=16;" parent="1" vertex="1">
          <mxGeometry x="144" y="127" width="84" height="89" as="geometry" />
        </mxCell>
        <mxCell id="HchMumat6N0xvnnnB4oJ-19" value="" style="edgeStyle=none;curved=1;rounded=0;orthogonalLoop=1;jettySize=auto;html=1;fontSize=12;startSize=8;endSize=8;" parent="1" source="HchMumat6N0xvnnnB4oJ-12" target="HchMumat6N0xvnnnB4oJ-18" edge="1">
          <mxGeometry relative="1" as="geometry" />
        </mxCell>
        <mxCell id="HchMumat6N0xvnnnB4oJ-12" value="Εμφάνισε" style="ellipse;shape=umlControl;whiteSpace=wrap;html=1;fontSize=16;" parent="1" vertex="1">
          <mxGeometry x="24" y="277" width="70" height="80" as="geometry" />
        </mxCell>
        <mxCell id="HchMumat6N0xvnnnB4oJ-25" value="" style="edgeStyle=none;curved=1;rounded=0;orthogonalLoop=1;jettySize=auto;html=1;fontSize=12;startSize=8;endSize=8;" parent="1" source="HchMumat6N0xvnnnB4oJ-18" target="HchMumat6N0xvnnnB4oJ-24" edge="1">
          <mxGeometry relative="1" as="geometry" />
        </mxCell>
        <mxCell id="HchMumat6N0xvnnnB4oJ-18" value="Σελίδα λεπτομέρειες φαγητού" style="shape=umlBoundary;whiteSpace=wrap;html=1;fontSize=16;" parent="1" vertex="1">
          <mxGeometry x="-317" y="189" width="100" height="80" as="geometry" />
        </mxCell>
        <mxCell id="HchMumat6N0xvnnnB4oJ-20" value="Λίστα φαγητών" style="ellipse;shape=umlEntity;whiteSpace=wrap;html=1;fontSize=16;" parent="1" vertex="1">
          <mxGeometry x="2" y="75" width="80" height="80" as="geometry" />
        </mxCell>
        <mxCell id="HchMumat6N0xvnnnB4oJ-31" value="ναι" style="edgeStyle=none;curved=1;rounded=0;orthogonalLoop=1;jettySize=auto;html=1;fontSize=12;startSize=8;endSize=8;" parent="1" source="HchMumat6N0xvnnnB4oJ-24" target="HchMumat6N0xvnnnB4oJ-30" edge="1">
          <mxGeometry x="-0.1018" y="-17" relative="1" as="geometry">
            <mxPoint as="offset" />
          </mxGeometry>
        </mxCell>
        <mxCell id="hVmCNeH1QFMWmfHC9A5S-9" value="" style="edgeStyle=orthogonalEdgeStyle;rounded=0;orthogonalLoop=1;jettySize=auto;html=1;" edge="1" parent="1" source="HchMumat6N0xvnnnB4oJ-24" target="HchMumat6N0xvnnnB4oJ-32">
          <mxGeometry relative="1" as="geometry">
            <Array as="points">
              <mxPoint x="-63" y="549" />
              <mxPoint x="-482" y="549" />
            </Array>
          </mxGeometry>
        </mxCell>
        <mxCell id="HchMumat6N0xvnnnB4oJ-24" value="Προσθήκη;" style="ellipse;shape=umlControl;whiteSpace=wrap;html=1;fontSize=16;" parent="1" vertex="1">
          <mxGeometry x="-98" y="434" width="70" height="80" as="geometry" />
        </mxCell>
        <mxCell id="HchMumat6N0xvnnnB4oJ-26" value="Ημερήσια λίστα" style="ellipse;shape=umlEntity;whiteSpace=wrap;html=1;fontSize=16;" parent="1" vertex="1">
          <mxGeometry x="-269" y="325" width="80" height="80" as="geometry" />
        </mxCell>
        <mxCell id="HchMumat6N0xvnnnB4oJ-33" value="" style="edgeStyle=none;curved=1;rounded=0;orthogonalLoop=1;jettySize=auto;html=1;fontSize=12;startSize=8;endSize=8;entryX=0.998;entryY=0.557;entryDx=0;entryDy=0;entryPerimeter=0;" parent="1" source="HchMumat6N0xvnnnB4oJ-30" target="hVmCNeH1QFMWmfHC9A5S-4" edge="1">
          <mxGeometry relative="1" as="geometry">
            <mxPoint x="-313" y="433" as="targetPoint" />
          </mxGeometry>
        </mxCell>
        <mxCell id="HchMumat6N0xvnnnB4oJ-34" value="" style="edgeStyle=none;curved=1;rounded=0;orthogonalLoop=1;jettySize=auto;html=1;fontSize=12;startSize=8;endSize=8;" parent="1" source="HchMumat6N0xvnnnB4oJ-30" target="HchMumat6N0xvnnnB4oJ-26" edge="1">
          <mxGeometry relative="1" as="geometry" />
        </mxCell>
        <mxCell id="HchMumat6N0xvnnnB4oJ-30" value="Πρόσθεσε" style="ellipse;shape=umlControl;whiteSpace=wrap;html=1;fontSize=16;" parent="1" vertex="1">
          <mxGeometry x="-247" y="434" width="70" height="80" as="geometry" />
        </mxCell>
        <mxCell id="HchMumat6N0xvnnnB4oJ-32" value="Σελίδα ημερήσια λίστα" style="shape=umlBoundary;whiteSpace=wrap;html=1;fontSize=16;" parent="1" vertex="1">
          <mxGeometry x="-533" y="428" width="100" height="80" as="geometry" />
        </mxCell>
        <mxCell id="HchMumat6N0xvnnnB4oJ-40" value="" style="edgeStyle=none;curved=1;rounded=0;orthogonalLoop=1;jettySize=auto;html=1;fontSize=12;startSize=8;endSize=8;" parent="1" source="HchMumat6N0xvnnnB4oJ-37" target="HchMumat6N0xvnnnB4oJ-39" edge="1">
          <mxGeometry relative="1" as="geometry" />
        </mxCell>
        <mxCell id="HchMumat6N0xvnnnB4oJ-37" value="Εμφάνισε μήνυμα ανεπιτυχούς εντοπισμού" style="ellipse;shape=umlControl;whiteSpace=wrap;html=1;fontSize=16;" parent="1" vertex="1">
          <mxGeometry x="325" y="98.5" width="115" height="125" as="geometry" />
        </mxCell>
        <mxCell id="HchMumat6N0xvnnnB4oJ-52" value="" style="edgeStyle=none;curved=1;rounded=0;orthogonalLoop=1;jettySize=auto;html=1;fontSize=12;startSize=8;endSize=8;" parent="1" source="HchMumat6N0xvnnnB4oJ-39" target="HchMumat6N0xvnnnB4oJ-41" edge="1">
          <mxGeometry relative="1" as="geometry" />
        </mxCell>
        <mxCell id="HchMumat6N0xvnnnB4oJ-39" value="&lt;font style=&quot;font-size: 14px;&quot;&gt;Σελίδα προσθήκης&amp;nbsp; φαγητού στη λίστα φαγητών&lt;/font&gt;" style="shape=umlBoundary;fontSize=16;html=1;whiteSpace=wrap;horizontal=1;labelBackgroundColor=none;labelBorderColor=none;spacingTop=0;spacing=0;spacingRight=0;spacingLeft=5;" parent="1" vertex="1">
          <mxGeometry x="505" y="-30" width="150" height="120" as="geometry" />
        </mxCell>
        <mxCell id="HchMumat6N0xvnnnB4oJ-44" value="" style="edgeStyle=none;curved=1;rounded=0;orthogonalLoop=1;jettySize=auto;html=1;fontSize=12;startSize=8;endSize=8;" parent="1" source="HchMumat6N0xvnnnB4oJ-41" target="HchMumat6N0xvnnnB4oJ-43" edge="1">
          <mxGeometry relative="1" as="geometry" />
        </mxCell>
        <mxCell id="HchMumat6N0xvnnnB4oJ-45" value="" style="edgeStyle=none;curved=1;rounded=0;orthogonalLoop=1;jettySize=auto;html=1;fontSize=12;startSize=8;endSize=8;" parent="1" source="HchMumat6N0xvnnnB4oJ-41" target="HchMumat6N0xvnnnB4oJ-12" edge="1">
          <mxGeometry relative="1" as="geometry" />
        </mxCell>
        <mxCell id="HchMumat6N0xvnnnB4oJ-41" value="Προσθήκη φαγητού" style="ellipse;shape=umlControl;whiteSpace=wrap;html=1;fontSize=16;" parent="1" vertex="1">
          <mxGeometry x="550" y="260" width="85" height="95" as="geometry" />
        </mxCell>
        <mxCell id="HchMumat6N0xvnnnB4oJ-43" value="Λίστα φαγητών" style="ellipse;shape=umlEntity;whiteSpace=wrap;html=1;fontSize=16;" parent="1" vertex="1">
          <mxGeometry x="340" y="431" width="80" height="80" as="geometry" />
        </mxCell>
        <mxCell id="hVmCNeH1QFMWmfHC9A5S-5" value="" style="rounded=0;orthogonalLoop=1;jettySize=auto;html=1;" edge="1" parent="1" source="hVmCNeH1QFMWmfHC9A5S-4" target="HchMumat6N0xvnnnB4oJ-32">
          <mxGeometry relative="1" as="geometry" />
        </mxCell>
        <mxCell id="hVmCNeH1QFMWmfHC9A5S-4" value="&lt;font style=&quot;font-size: 14px;&quot;&gt;Εμφάνισε&lt;/font&gt;" style="ellipse;shape=umlControl;whiteSpace=wrap;html=1;" vertex="1" parent="1">
          <mxGeometry x="-380" y="428" width="70" height="80" as="geometry" />
        </mxCell>
      </root>
    </mxGraphModel>
  </diagram>
</mxfile>
